<?xml version="1.0" encoding="UTF-8" standalone="no"?>
<!-- Created with Inkscape (http://www.inkscape.org/) -->

<svg
   xmlns:dc="http://purl.org/dc/elements/1.1/"
   xmlns:cc="http://creativecommons.org/ns#"
   xmlns:rdf="http://www.w3.org/1999/02/22-rdf-syntax-ns#"
   xmlns:svg="http://www.w3.org/2000/svg"
   xmlns="http://www.w3.org/2000/svg"
   xmlns:xlink="http://www.w3.org/1999/xlink"
   xmlns:sodipodi="http://sodipodi.sourceforge.net/DTD/sodipodi-0.dtd"
   xmlns:inkscape="http://www.inkscape.org/namespaces/inkscape"
   width="370"
   height="370"
   id="svg2"
   version="1.1"
   inkscape:version="0.48.4 r9939"
   sodipodi:docname="logo.svg">
  <defs
     id="defs4">
    <linearGradient
       id="linearGradient3933">
      <stop
         style="stop-color:#b6b6b6;stop-opacity:1;"
         offset="0"
         id="stop3935" />
      <stop
         style="stop-color:#e9e9e9;stop-opacity:1;"
         offset="1"
         id="stop3937" />
    </linearGradient>
    <clipPath
       id="clip1">
      <path
         id="path3050"
         d="m 0,340.15625 481.89062,0 L 481.89062,0 0,0 0,340.15625 z m 0,0"
         inkscape:connector-curvature="0" />
    </clipPath>
  </defs>
  <sodipodi:namedview
     id="base"
     pagecolor="#ffffff"
     bordercolor="#666666"
     borderopacity="1.0"
     inkscape:pageopacity="0.0"
     inkscape:pageshadow="2"
     inkscape:zoom="0.98994949"
     inkscape:cx="300.79386"
     inkscape:cy="210.17296"
     inkscape:document-units="px"
     inkscape:current-layer="layer4"
     showgrid="true"
     inkscape:snap-global="true"
     inkscape:window-width="1366"
     inkscape:window-height="688"
     inkscape:window-x="0"
     inkscape:window-y="0"
     inkscape:window-maximized="1"
     fit-margin-top="0"
     fit-margin-left="0"
     fit-margin-right="0"
     fit-margin-bottom="0"
     units="in">
    <inkscape:grid
       type="xygrid"
       id="grid3158"
       empspacing="5"
       visible="true"
       enabled="true"
       snapvisiblegridlinesonly="true"
       originx="-80px"
       originy="-479.99996px" />
  </sodipodi:namedview>
  <metadata
     id="metadata7">
    <rdf:RDF>
      <cc:Work
         rdf:about="">
        <dc:format>image/svg+xml</dc:format>
        <dc:type
           rdf:resource="http://purl.org/dc/dcmitype/StillImage" />
        <dc:title></dc:title>
      </cc:Work>
    </rdf:RDF>
  </metadata>
  <g
     inkscape:groupmode="layer"
     id="layer3"
     inkscape:label="QFP case"
     transform="translate(-80,-202.362)">
    <path
       style="fill:#000000;fill-opacity:1;stroke:#000000;stroke-width:1px;stroke-linecap:butt;stroke-linejoin:miter;stroke-opacity:1"
       d="m 120,512.36218 0,-250 20,-20 250,0 20,20 0,250 -20,20 -250,0 z"
       id="path3160"
       inkscape:connector-curvature="0"
       sodipodi:nodetypes="ccccccccc" />
  </g>
  <g
     inkscape:groupmode="layer"
     id="layer4"
     inkscape:label="QFP pins"
     transform="translate(-80,-202.362)">
    <path
       inkscape:tile-y0="272.36218"
       inkscape:tile-x0="80"
       inkscape:connector-curvature="0"
       id="use4014"
       d="m 120,282.36218 0,-10 -40,0 0,10 z"
       style="fill:#a3a3a3;fill-opacity:1;stroke:none"
       inkscape:tile-cx="100"
       inkscape:tile-cy="277.36218"
       inkscape:tile-w="40"
       inkscape:tile-h="10" />
    <use
       x="0"
       y="0"
       inkscape:tiled-clone-of="#use4014"
       xlink:href="#use4014"
       id="use4134"
       width="744.09448"
       height="1052.3622" />
    <use
       x="0"
       y="0"
       inkscape:tiled-clone-of="#use4014"
       xlink:href="#use4014"
       transform="translate(0,20)"
       id="use4136"
       width="744.09448"
       height="1052.3622" />
    <use
       x="0"
       y="0"
       inkscape:tiled-clone-of="#use4014"
       xlink:href="#use4014"
       transform="translate(0,40)"
       id="use4138"
       width="744.09448"
       height="1052.3622" />
    <use
       x="0"
       y="0"
       inkscape:tiled-clone-of="#use4014"
       xlink:href="#use4014"
       transform="translate(0,60)"
       id="use4140"
       width="744.09448"
       height="1052.3622" />
    <use
       x="0"
       y="0"
       inkscape:tiled-clone-of="#use4014"
       xlink:href="#use4014"
       transform="translate(0,80)"
       id="use4142"
       width="744.09448"
       height="1052.3622" />
    <use
       x="0"
       y="0"
       inkscape:tiled-clone-of="#use4014"
       xlink:href="#use4014"
       transform="translate(0,100)"
       id="use4144"
       width="744.09448"
       height="1052.3622" />
    <use
       x="0"
       y="0"
       inkscape:tiled-clone-of="#use4014"
       xlink:href="#use4014"
       transform="translate(0,120)"
       id="use4146"
       width="744.09448"
       height="1052.3622" />
    <use
       x="0"
       y="0"
       inkscape:tiled-clone-of="#use4014"
       xlink:href="#use4014"
       transform="translate(0,140)"
       id="use4148"
       width="744.09448"
       height="1052.3622" />
    <use
       x="0"
       y="0"
       inkscape:tiled-clone-of="#use4014"
       xlink:href="#use4014"
       transform="translate(0,160)"
       id="use4150"
       width="744.09448"
       height="1052.3622" />
    <use
       x="0"
       y="0"
       inkscape:tiled-clone-of="#use4014"
       xlink:href="#use4014"
       transform="translate(0,180)"
       id="use4152"
       width="744.09448"
       height="1052.3622" />
    <use
       x="0"
       y="0"
       inkscape:tiled-clone-of="#use4014"
       xlink:href="#use4014"
       transform="translate(0,200)"
       id="use4154"
       width="744.09448"
       height="1052.3622" />
    <use
       x="0"
       y="0"
       inkscape:tiled-clone-of="#use4014"
       xlink:href="#use4014"
       transform="translate(0,220)"
       id="use4156"
       width="744.09448"
       height="1052.3622" />
    <use
       x="0"
       y="0"
       xlink:href="#use4014"
       id="use4158"
       transform="matrix(0,-1,1,0,-122.36218,322.36218)"
       width="744.09448"
       height="1052.3622" />
    <use
       x="0"
       y="0"
       xlink:href="#use4134"
       id="use4160"
       transform="matrix(0,-1,1,0,-122.36218,322.36218)"
       width="744.09448"
       height="1052.3622" />
    <use
       x="0"
       y="0"
       xlink:href="#use4136"
       id="use4162"
       transform="matrix(0,-1,1,0,-122.36218,322.36218)"
       width="744.09448"
       height="1052.3622" />
    <use
       x="0"
       y="0"
       xlink:href="#use4138"
       id="use4164"
       transform="matrix(0,-1,1,0,-122.36218,322.36218)"
       width="744.09448"
       height="1052.3622" />
    <use
       x="0"
       y="0"
       xlink:href="#use4140"
       id="use4166"
       transform="matrix(0,-1,1,0,-122.36218,322.36218)"
       width="744.09448"
       height="1052.3622" />
    <use
       x="0"
       y="0"
       xlink:href="#use4142"
       id="use4168"
       transform="matrix(0,-1,1,0,-122.36218,322.36218)"
       width="744.09448"
       height="1052.3622" />
    <use
       x="0"
       y="0"
       xlink:href="#use4144"
       id="use4170"
       transform="matrix(0,-1,1,0,-122.36218,322.36218)"
       width="744.09448"
       height="1052.3622" />
    <use
       x="0"
       y="0"
       xlink:href="#use4146"
       id="use4172"
       transform="matrix(0,-1,1,0,-122.36218,322.36218)"
       width="744.09448"
       height="1052.3622" />
    <use
       x="0"
       y="0"
       xlink:href="#use4148"
       id="use4174"
       transform="matrix(0,-1,1,0,-122.36218,322.36218)"
       width="744.09448"
       height="1052.3622" />
    <use
       x="0"
       y="0"
       xlink:href="#use4150"
       id="use4176"
       transform="matrix(0,-1,1,0,-122.36218,322.36218)"
       width="744.09448"
       height="1052.3622" />
    <use
       x="0"
       y="0"
       xlink:href="#use4152"
       id="use4178"
       transform="matrix(0,-1,1,0,-122.36218,322.36218)"
       width="744.09448"
       height="1052.3622" />
    <use
       x="0"
       y="0"
       xlink:href="#use4154"
       id="use4180"
       transform="matrix(0,-1,1,0,-122.36218,322.36218)"
       width="744.09448"
       height="1052.3622" />
    <use
       x="0"
       y="0"
       xlink:href="#use4156"
       id="use4182"
       transform="matrix(0,-1,1,0,-122.36218,322.36218)"
       width="744.09448"
       height="1052.3622" />
    <use
       x="0"
       y="0"
       xlink:href="#use4158"
       id="use4184"
       transform="matrix(0,-1,1,0,207.63782,652.36218)"
       width="744.09448"
       height="1052.3622" />
    <use
       x="0"
       y="0"
       xlink:href="#use4160"
       id="use4186"
       transform="matrix(0,-1,1,0,207.63782,652.36218)"
       width="744.09448"
       height="1052.3622" />
    <use
       x="0"
       y="0"
       xlink:href="#use4162"
       id="use4188"
       transform="matrix(0,-1,1,0,207.63782,652.36218)"
       width="744.09448"
       height="1052.3622" />
    <use
       x="0"
       y="0"
       xlink:href="#use4164"
       id="use4190"
       transform="matrix(0,-1,1,0,207.63782,652.36218)"
       width="744.09448"
       height="1052.3622" />
    <use
       x="0"
       y="0"
       xlink:href="#use4166"
       id="use4192"
       transform="matrix(0,-1,1,0,207.63782,652.36218)"
       width="744.09448"
       height="1052.3622" />
    <use
       x="0"
       y="0"
       xlink:href="#use4168"
       id="use4194"
       transform="matrix(0,-1,1,0,207.63782,652.36218)"
       width="744.09448"
       height="1052.3622" />
    <use
       x="0"
       y="0"
       xlink:href="#use4170"
       id="use4196"
       transform="matrix(0,-1,1,0,207.63782,652.36218)"
       width="744.09448"
       height="1052.3622" />
    <use
       x="0"
       y="0"
       xlink:href="#use4172"
       id="use4198"
       transform="matrix(0,-1,1,0,207.63782,652.36218)"
       width="744.09448"
       height="1052.3622" />
    <use
       x="0"
       y="0"
       xlink:href="#use4174"
       id="use4200"
       transform="matrix(0,-1,1,0,207.63782,652.36218)"
       width="744.09448"
       height="1052.3622" />
    <use
       x="0"
       y="0"
       xlink:href="#use4176"
       id="use4202"
       transform="matrix(0,-1,1,0,207.63782,652.36218)"
       width="744.09448"
       height="1052.3622" />
    <use
       x="0"
       y="0"
       xlink:href="#use4178"
       id="use4204"
       transform="matrix(0,-1,1,0,207.63782,652.36218)"
       width="744.09448"
       height="1052.3622" />
    <use
       x="0"
       y="0"
       xlink:href="#use4180"
       id="use4206"
       transform="matrix(0,-1,1,0,207.63782,652.36218)"
       width="744.09448"
       height="1052.3622" />
    <use
       x="0"
       y="0"
       xlink:href="#use4182"
       id="use4208"
       transform="matrix(0,-1,1,0,207.63782,652.36218)"
       width="744.09448"
       height="1052.3622" />
    <use
       x="0"
       y="0"
       xlink:href="#use4184"
       id="use4210"
       transform="matrix(0,-1,1,0,-122.36218,982.36218)"
       width="744.09448"
       height="1052.3622" />
    <use
       x="0"
       y="0"
       xlink:href="#use4186"
       id="use4212"
       transform="matrix(0,-1,1,0,-122.36218,982.36218)"
       width="744.09448"
       height="1052.3622" />
    <use
       x="0"
       y="0"
       xlink:href="#use4188"
       id="use4214"
       transform="matrix(0,-1,1,0,-122.36218,982.36218)"
       width="744.09448"
       height="1052.3622" />
    <use
       x="0"
       y="0"
       xlink:href="#use4190"
       id="use4216"
       transform="matrix(0,-1,1,0,-122.36218,982.36218)"
       width="744.09448"
       height="1052.3622" />
    <use
       x="0"
       y="0"
       xlink:href="#use4192"
       id="use4218"
       transform="matrix(0,-1,1,0,-122.36218,982.36218)"
       width="744.09448"
       height="1052.3622" />
    <use
       x="0"
       y="0"
       xlink:href="#use4194"
       id="use4220"
       transform="matrix(0,-1,1,0,-122.36218,982.36218)"
       width="744.09448"
       height="1052.3622" />
    <use
       x="0"
       y="0"
       xlink:href="#use4196"
       id="use4222"
       transform="matrix(0,-1,1,0,-122.36218,982.36218)"
       width="744.09448"
       height="1052.3622" />
    <use
       x="0"
       y="0"
       xlink:href="#use4198"
       id="use4224"
       transform="matrix(0,-1,1,0,-122.36218,982.36218)"
       width="744.09448"
       height="1052.3622" />
    <use
       x="0"
       y="0"
       xlink:href="#use4200"
       id="use4226"
       transform="matrix(0,-1,1,0,-122.36218,982.36218)"
       width="744.09448"
       height="1052.3622" />
    <use
       x="0"
       y="0"
       xlink:href="#use4202"
       id="use4228"
       transform="matrix(0,-1,1,0,-122.36218,982.36218)"
       width="744.09448"
       height="1052.3622" />
    <use
       x="0"
       y="0"
       xlink:href="#use4204"
       id="use4230"
       transform="matrix(0,-1,1,0,-122.36218,982.36218)"
       width="744.09448"
       height="1052.3622" />
    <use
       x="0"
       y="0"
       xlink:href="#use4206"
       id="use4232"
       transform="matrix(0,-1,1,0,-122.36218,982.36218)"
       width="744.09448"
       height="1052.3622" />
    <use
       x="0"
       y="0"
       xlink:href="#use4208"
       id="use4234"
       transform="matrix(0,-1,1,0,-122.36218,982.36218)"
       width="744.09448"
       height="1052.3622" />
  </g>
  <g
     inkscape:label="Haskell lambda"
     inkscape:groupmode="layer"
     id="layer1"
     style="display:inline"
     transform="translate(-80,-202.362)">
    <g
       id="surface0"
       transform="matrix(0.46875,0,0,0.46875,152.05689,307.63806)">
      <g
         id="g3053"
         clip-rule="nonzero"
         clip-path="url(#clip1)">
        <path
           id="path3055"
           d="M 0,340.15625 113.38672,170.07812 0,0 85.039062,0 198.42578,170.07812 85.039062,340.15625 0,340.15625 z m 0,0"
           style="fill:#666666;fill-opacity:1;fill-rule:nonzero;stroke:none"
           inkscape:connector-curvature="0" />
        <path
           id="path3057"
           d="M 113.38672,340.15625 226.77344,170.07812 113.38672,0 l 85.03906,0 226.76953,340.15625 -85.03906,0 -70.86328,-106.29688 -70.86719,106.29688 -85.03906,0 z m 0,0"
           style="fill:#999999;fill-opacity:1;fill-rule:nonzero;stroke:none"
           inkscape:connector-curvature="0" />
        <path
           id="path3059"
           d="m 387.40234,240.94531 -37.79297,-56.6914 132.28125,-0.004 0,56.69531 -94.48828,0 z m 0,0"
           style="fill:#666666;fill-opacity:1;fill-rule:nonzero;stroke:none"
           inkscape:connector-curvature="0" />
        <path
           id="path3061"
           d="m 330.71094,155.90625 -37.79688,-56.691406 188.97656,-0.0039 0,56.695316 -151.17968,0 z m 0,0"
           style="fill:#666666;fill-opacity:1;fill-rule:nonzero;stroke:none"
           inkscape:connector-curvature="0" />
      </g>
    </g>
  </g>
</svg>
